<mxfile host="app.diagrams.net" agent="Mozilla/5.0 (Windows NT 10.0; Win64; x64) AppleWebKit/537.36 (KHTML, like Gecko) Chrome/134.0.0.0 Safari/537.36" version="26.1.0">
  <diagram name="Page-1" id="_5-D83NIVAzFIFOe4iBH">
    <mxGraphModel dx="1259" dy="655" grid="1" gridSize="10" guides="1" tooltips="1" connect="1" arrows="1" fold="1" page="1" pageScale="1" pageWidth="850" pageHeight="1100" math="0" shadow="0">
      <root>
        <mxCell id="0" />
        <mxCell id="1" parent="0" />
        <mxCell id="5tbGoQtyrm8KLPNyxid6-1" value="AWS Account" style="points=[[0,0],[0.25,0],[0.5,0],[0.75,0],[1,0],[1,0.25],[1,0.5],[1,0.75],[1,1],[0.75,1],[0.5,1],[0.25,1],[0,1],[0,0.75],[0,0.5],[0,0.25]];outlineConnect=0;gradientColor=none;html=1;whiteSpace=wrap;fontSize=12;fontStyle=0;container=1;pointerEvents=0;collapsible=0;recursiveResize=0;shape=mxgraph.aws4.group;grIcon=mxgraph.aws4.group_account;strokeColor=#CD2264;fillColor=none;verticalAlign=top;align=left;spacingLeft=30;fontColor=#CD2264;dashed=0;" vertex="1" parent="1">
          <mxGeometry y="80" width="960" height="560" as="geometry" />
        </mxCell>
        <mxCell id="5tbGoQtyrm8KLPNyxid6-2" value="" style="rounded=0;whiteSpace=wrap;html=1;" vertex="1" parent="5tbGoQtyrm8KLPNyxid6-1">
          <mxGeometry x="430" y="120" width="470" height="330" as="geometry" />
        </mxCell>
        <mxCell id="5tbGoQtyrm8KLPNyxid6-7" style="edgeStyle=orthogonalEdgeStyle;rounded=0;orthogonalLoop=1;jettySize=auto;html=1;" edge="1" parent="5tbGoQtyrm8KLPNyxid6-1" source="5tbGoQtyrm8KLPNyxid6-3" target="5tbGoQtyrm8KLPNyxid6-5">
          <mxGeometry relative="1" as="geometry" />
        </mxCell>
        <mxCell id="5tbGoQtyrm8KLPNyxid6-8" style="edgeStyle=orthogonalEdgeStyle;rounded=0;orthogonalLoop=1;jettySize=auto;html=1;" edge="1" parent="5tbGoQtyrm8KLPNyxid6-1" source="5tbGoQtyrm8KLPNyxid6-3" target="5tbGoQtyrm8KLPNyxid6-4">
          <mxGeometry relative="1" as="geometry" />
        </mxCell>
        <mxCell id="5tbGoQtyrm8KLPNyxid6-9" style="edgeStyle=orthogonalEdgeStyle;rounded=0;orthogonalLoop=1;jettySize=auto;html=1;" edge="1" parent="5tbGoQtyrm8KLPNyxid6-1" source="5tbGoQtyrm8KLPNyxid6-3" target="5tbGoQtyrm8KLPNyxid6-6">
          <mxGeometry relative="1" as="geometry" />
        </mxCell>
        <mxCell id="5tbGoQtyrm8KLPNyxid6-3" value="Amazon EKS" style="sketch=0;outlineConnect=0;fontColor=#232F3E;gradientColor=none;strokeColor=#ffffff;fillColor=#232F3E;dashed=0;verticalLabelPosition=middle;verticalAlign=bottom;align=center;html=1;whiteSpace=wrap;fontSize=10;fontStyle=1;spacing=3;shape=mxgraph.aws4.productIcon;prIcon=mxgraph.aws4.eks;" vertex="1" parent="5tbGoQtyrm8KLPNyxid6-1">
          <mxGeometry x="490" y="190" width="80" height="100" as="geometry" />
        </mxCell>
        <mxCell id="5tbGoQtyrm8KLPNyxid6-4" value="" style="sketch=0;points=[[0,0,0],[0.25,0,0],[0.5,0,0],[0.75,0,0],[1,0,0],[0,1,0],[0.25,1,0],[0.5,1,0],[0.75,1,0],[1,1,0],[0,0.25,0],[0,0.5,0],[0,0.75,0],[1,0.25,0],[1,0.5,0],[1,0.75,0]];outlineConnect=0;fontColor=#232F3E;fillColor=#ED7100;strokeColor=#ffffff;dashed=0;verticalLabelPosition=bottom;verticalAlign=top;align=center;html=1;fontSize=12;fontStyle=0;aspect=fixed;shape=mxgraph.aws4.resourceIcon;resIcon=mxgraph.aws4.ec2;" vertex="1" parent="5tbGoQtyrm8KLPNyxid6-1">
          <mxGeometry x="730" y="140" width="60" height="60" as="geometry" />
        </mxCell>
        <mxCell id="5tbGoQtyrm8KLPNyxid6-6" value="" style="sketch=0;points=[[0,0,0],[0.25,0,0],[0.5,0,0],[0.75,0,0],[1,0,0],[0,1,0],[0.25,1,0],[0.5,1,0],[0.75,1,0],[1,1,0],[0,0.25,0],[0,0.5,0],[0,0.75,0],[1,0.25,0],[1,0.5,0],[1,0.75,0]];outlineConnect=0;fontColor=#232F3E;fillColor=#ED7100;strokeColor=#ffffff;dashed=0;verticalLabelPosition=bottom;verticalAlign=top;align=center;html=1;fontSize=12;fontStyle=0;aspect=fixed;shape=mxgraph.aws4.resourceIcon;resIcon=mxgraph.aws4.ec2;" vertex="1" parent="5tbGoQtyrm8KLPNyxid6-1">
          <mxGeometry x="730" y="290" width="60" height="60" as="geometry" />
        </mxCell>
        <mxCell id="5tbGoQtyrm8KLPNyxid6-5" value="" style="sketch=0;points=[[0,0,0],[0.25,0,0],[0.5,0,0],[0.75,0,0],[1,0,0],[0,1,0],[0.25,1,0],[0.5,1,0],[0.75,1,0],[1,1,0],[0,0.25,0],[0,0.5,0],[0,0.75,0],[1,0.25,0],[1,0.5,0],[1,0.75,0]];outlineConnect=0;fontColor=#232F3E;fillColor=#ED7100;strokeColor=#ffffff;dashed=0;verticalLabelPosition=bottom;verticalAlign=top;align=center;html=1;fontSize=12;fontStyle=0;aspect=fixed;shape=mxgraph.aws4.resourceIcon;resIcon=mxgraph.aws4.ec2;" vertex="1" parent="5tbGoQtyrm8KLPNyxid6-1">
          <mxGeometry x="730" y="210" width="60" height="60" as="geometry" />
        </mxCell>
        <mxCell id="5tbGoQtyrm8KLPNyxid6-11" style="edgeStyle=orthogonalEdgeStyle;rounded=0;orthogonalLoop=1;jettySize=auto;html=1;" edge="1" parent="5tbGoQtyrm8KLPNyxid6-1" source="5tbGoQtyrm8KLPNyxid6-10" target="5tbGoQtyrm8KLPNyxid6-2">
          <mxGeometry relative="1" as="geometry" />
        </mxCell>
        <mxCell id="5tbGoQtyrm8KLPNyxid6-10" value="" style="outlineConnect=0;dashed=0;verticalLabelPosition=bottom;verticalAlign=top;align=center;html=1;shape=mxgraph.aws3.application_load_balancer;fillColor=#F58534;gradientColor=none;" vertex="1" parent="5tbGoQtyrm8KLPNyxid6-1">
          <mxGeometry x="130" y="210" width="80" height="80" as="geometry" />
        </mxCell>
        <mxCell id="5tbGoQtyrm8KLPNyxid6-12" value="&lt;b&gt;Ingress Controller&lt;/b&gt;" style="text;html=1;align=center;verticalAlign=middle;resizable=0;points=[];autosize=1;strokeColor=none;fillColor=none;" vertex="1" parent="5tbGoQtyrm8KLPNyxid6-1">
          <mxGeometry x="105" y="305" width="130" height="30" as="geometry" />
        </mxCell>
      </root>
    </mxGraphModel>
  </diagram>
</mxfile>
